#!OML:ASF E:\motion texture\Top Level 1\Subject 1\Session 1\male.ASF
:FULLY-SPECIFIED
:DEGREES
301
root -13.1358 17.838 4.01922 107.13 -86.157 -101.141
lowerback -0.791399 -2.85872 3.80486
upperback -0.418444 -4.00494 5.72359
thorax 0.168561 -2.07163 3.72662
lowerneck -18.0515 -1.50465 -4.45307
upperneck 17.1798 -1.84485 4.44097
head 8.40147 -0.725278 1.99698
rclavicle 2.08724e-014 -4.29375e-014
rhumerus -40.1134 -17.9276 -70.5761
rradius 23.542
rwrist 5.50075
rhand -13.8478 -27.4632
rfingers 7.12502
rthumb 12.2759 -57.0829
lclavicle 2.08724e-014 -4.29375e-014
lhumerus -27.4566 -0.407948 93.2403
lradius 36.4715
lwrist -16.9422
lhand -4.36469 19.9872
lfingers 7.12502
lthumb 21.4037 48.825
rfemur -26.9785 2.71228 24.4005
rtibia 25.6763
rfoot -0.471857 -7.39544
rtoes 19.5054
lfemur -5.64809 -1.27314 -13.5325
ltibia 50.2486
lfoot 11.5676 -3.45673
ltoes -12.2872
302
root -13.3095 17.8586 3.98277 106.18 -85.6683 -100.291
lowerback -0.838239 -2.74572 4.24273
upperback -0.399224 -3.87118 5.81902
thorax 0.18805 -2.0081 3.58063
lowerneck -18.0167 -1.5491 -4.47939
upperneck 17.204 -1.87779 4.33028
head 8.40431 -0.754633 1.9599
rclavicle -2.19657e-014 1.74931e-014
rhumerus -39.9367 -16.4309 -71.8068
rradius 25.3355
rwrist 3.10622
rhand -14.5453 -27.8706
rfingers 7.12502
rthumb 11.6033 -57.5294
lclavicle -2.19657e-014 1.74931e-014
lhumerus -28.178 -0.671194 93.3728
lradius 37.3355
lwrist -17.0678
lhand -2.83123 19.5912
lfingers 7.12502
lthumb 22.8759 48.2544
rfemur -26.022 2.74065 25.1933
rtibia 25.3963
rfoot -0.9729 -7.26765
rtoes 19.5159
lfemur -6.80049 -0.775891 -12.7056
ltibia 52.1706
lfoot 12.5709 -3.20803
ltoes -10.5441
303
root -13.4809 17.8799 3.94784 106.112 -85.2382 -100.366
lowerback -0.839772 -2.61041 4.61643
upperback -0.372545 -3.70233 5.88074
thorax 0.192188 -1.92619 3.43809
lowerneck -17.9806 -1.60301 -4.52955
upperneck 17.2643 -1.92527 4.248
head 8.4203 -0.789843 1.93483
rclavicle 3.8763e-014 -9.54166e-014
rhumerus -39.8076 -15.0313 -72.945
rradius 27.3073
rwrist 0.834101
rhand -15.1203 -28.2195
rfingers 7.12502
rthumb 11.0487 -57.9087
lclavicle 3.8763e-014 -9.54166e-014
lhumerus -28.8731 -1.00099 93.4995
lradius 38.2768
lwrist -17.0624
lhand -1.37837 19.1525
lfingers 7.12502
lthumb 24.2695 47.6364
rfemur -25.0032 2.77546 25.892
rtibia 25.0598
rfoot -1.45084 -7.13985
rtoes 19.6299
lfemur -7.90645 -0.250264 -11.9863
ltibia 54.0163
lfoot 12.8967 -2.72962
ltoes -10.0406
304
root -13.6506 17.9021 3.91454 106.735 -84.884 -101.171
lowerback -0.804096 -2.45713 4.911
upperback -0.339888 -3.50359 5.90477
thorax 0.184968 -1.82834 3.30228
lowerneck -17.9333 -1.66194 -4.59985
upperneck 17.3541 -1.98053 4.18554
head 8.44508 -0.828496 1.91902
rclavicle 1.19271e-015 3.18055e-015
rhumerus -39.7153 -13.764 -73.9674
rradius 29.4355
rwrist -1.2675
rhand -15.4757 -28.4511
rfingers 7.12502
rthumb 10.7059 -58.1583
lclavicle 1.19271e-015 3.18055e-015
lhumerus -29.5513 -1.37881 93.6143
lradius 39.2888
lwrist -16.9001
lhand -0.0245234 18.7332
lfingers 7.12502
lthumb 25.5669 47.0374
rfemur -23.9244 2.82235 26.4773
rtibia 24.6691
rfoot -1.89574 -7.00715
rtoes 19.7816
lfemur -8.95681 0.312788 -11.3889
ltibia 55.7561
lfoot 12.6496 -2.1142
ltoes -10.498
305
root -13.8189 17.9253 3.88278 107.842 -84.6078 -102.478
lowerback -0.749155 -2.29386 5.12305
upperback -0.309364 -3.28633 5.89461
thorax 0.168658 -1.72032 3.1776
lowerneck -17.8731 -1.71797 -4.6725
upperneck 17.4732 -2.03263 4.11938
head 8.47733 -0.866774 1.90293
rclavicle -1.25234e-014 -9.22361e-014
rhumerus -39.6422 -12.6456 -74.864
rradius 31.6894
rwrist -3.17914
rhand -15.5677 -28.5384
rfingers 7.12502
rthumb 10.6172 -58.2502
lclavicle -1.25234e-014 -9.22361e-014
lhumerus -30.2231 -1.76967 93.7069
lradius 40.3647
lwrist -16.6108
lhand 1.24807 18.3684
lfingers 7.12502
lthumb 26.7853 46.4919
rfemur -22.807 2.88398 26.9475
rtibia 24.228
rfoot -2.3039 -6.8758
rtoes 19.9289
lfemur -9.96851 0.908628 -10.9111
ltibia 57.3733
lfoot 12.0134 -1.44606
ltoes -11.3216
306
root -13.9863 17.9498 3.85215 109.253 -84.3916 -104.089
lowerback -0.700844 -2.12637 5.27155
upperback -0.28635 -3.06083 5.85696
thorax 0.1515 -1.60742 3.05921
lowerneck -17.8105 -1.76658 -4.74141
upperneck 17.6307 -2.07524 4.04201
head 8.52158 -0.902038 1.88382
rclavicle 4.27387e-015 -1.27222e-014
rhumerus -39.5711 -11.6809 -75.6375
rradius 34.0439
rwrist -4.89672
rhand -15.3721 -28.4352
rfingers 7.12502
rthumb 10.8058 -58.1372
lclavicle 4.27387e-015 -1.27222e-014
lhumerus -30.8933 -2.15415 93.77
lradius 41.4983
lwrist -16.2193
lhand 2.44412 18.1104
lfingers 7.12502
lthumb 27.9293 46.0533
rfemur -21.6745 2.97578 27.3247
rtibia 23.743
rfoot -2.67787 -6.76359
rtoes 20.0647
lfemur -10.9638 1.53299 -10.5248
ltibia 58.8519
lfoot 11.1693 -0.804204
ltoes -12.0381
307
root -14.1527 17.975 3.82215 110.733 -84.2163 -105.748
lowerback -0.688331 -1.96114 5.37254
upperback -0.270806 -2.83951 5.80394
thorax 0.149642 -1.49598 2.94953
lowerneck -17.7376 -1.80348 -4.80925
upperneck 17.8116 -2.10069 3.95018
head 8.571 -0.931248 1.86189
rclavicle 1.00386e-014 3.33958e-014
rhumerus -39.4714 -10.8707 -76.2911
rradius 36.4712
rwrist -6.42637
rhand -14.8832 -28.1589
rfingers 7.12502
rthumb 11.2774 -57.8357
lclavicle 1.00386e-014 3.33958e-014
lhumerus -31.5659 -2.51801 93.8015
lradius 42.6909
lwrist -15.757
lhand 3.55395 17.9761
lfingers 7.12502
lthumb 28.9898 45.7416
rfemur -20.5477 3.09323 27.6386
rtibia 23.2177
rfoot -3.01682 -6.67709
rtoes 20.1451
lfemur -11.9651 2.16702 -10.1989
ltibia 60.1809
lfoot 10.2438 -0.247725
ltoes -12.5513
308
root -14.3181 18.0009 3.79273 112.19 -84.0631 -107.356
lowerback -0.712228 -1.79962 5.45144
upperback -0.265341 -2.62498 5.7416
thorax 0.159583 -1.38757 2.84115
lowerneck -17.6641 -1.82949 -4.87513
upperneck 18.0168 -2.10811 3.83661
head 8.62754 -0.954648 1.83461
rclavicle 2.5842e-015 -2.38542e-014
rhumerus -39.3301 -10.1971 -76.8392
rradius 38.9557
rwrist -7.82068
rhand -14.1359 -27.7393
rfingers 7.12502
rthumb 11.9981 -57.3754
lclavicle 2.5842e-015 -2.38542e-014
lhumerus -32.243 -2.85908 93.8042
lradius 43.9308
lwrist -15.2284
lhand 4.49309 17.9291
lfingers 7.12502
lthumb 29.8864 45.5369
rfemur -19.432 3.23721 27.9151
rtibia 22.6494
rfoot -3.32992 -6.62634
rtoes 20.2312
lfemur -12.9804 2.79618 -9.91186
ltibia 61.3532
lfoot 9.32688 0.177376
ltoes -12.8273
309
root -14.4825 18.0269 3.76363 113.465 -83.9194 -108.749
lowerback -0.786961 -1.64714 5.52139
upperback -0.26555 -2.42682 5.6783
thorax 0.193732 -1.287 2.73509
lowerneck -17.5946 -1.84046 -4.93133
upperneck 18.2402 -2.09115 3.69215
head 8.68955 -0.969646 1.7983
rclavicle 2.98177e-015 -1.74931e-014
rhumerus -39.1184 -9.63415 -77.3024
rradius 41.4735
rwrist -9.14379
rhand -13.1638 -27.2655
rfingers 7.12502
rthumb 12.9353 -56.8445
lclavicle 2.98177e-015 -1.74931e-014
lhumerus -32.9119 -3.16779 93.7779
lradius 45.2014
lwrist -14.6601
lhand 5.25421 17.9517
lfingers 7.12502
lthumb 30.6124 45.4263
rfemur -18.3339 3.39457 28.1779
rtibia 22.0375
rfoot -3.61667 -6.60834
rtoes 20.3125
lfemur -14.0204 3.39757 -9.64481
ltibia 62.3698
lfoot 8.45021 0.461062
ltoes -12.9674
310
root -14.6452 18.0525 3.73487 114.536 -83.7688 -109.917
lowerback -0.888403 -1.50014 5.60278
upperback -0.276862 -2.2382 5.61845
thorax 0.232139 -1.19133 2.62599
lowerneck -17.5051 -1.84119 -4.9697
upperneck 18.4635 -2.05456 3.49608
head 8.74648 -0.98035 1.74386
rclavicle 3.37934e-015 -2.22639e-014
rhumerus -38.8601 -9.13573 -77.6994
rradius 44.0456
rwrist -10.4942
rhand -12.032 -26.8032
rfingers 7.12502
rthumb 14.0262 -56.3099
lclavicle 3.37934e-015 -2.22639e-014
lhumerus -33.5846 -3.45363 93.7331
lradius 46.4902
lwrist -14.0381
lhand 5.73643 17.991
lfingers 7.12502
lthumb 31.0721 45.3787
rfemur -17.2447 3.56382 28.4494
rtibia 21.3837
rfoot -3.87161 -6.62489
rtoes 20.421
lfemur -15.0724 3.96288 -9.37917
ltibia 63.2285
lfoot 7.65408 0.619201
ltoes -13.0207
